# xmcd
#
# Track frame offsets:
#	150
#	12367
#	23985
#	36127
#	49775
#	60857
#	77555
#	92282
#	109142
#	128640
#
# Disc length: 1894 seconds
#
# Revision: 5
# Processed by: cddbd v1.5.2PL0 Copyright (c) Steve Scherf et al.
# Submitted via: EasyCDDAExtractor 15.0.0.1
#
DISCID=6b07640a
DTITLE=Various Artist - Supermusic Más - Blues&Soul
DYEAR=1996
DGENRE=Blues
TTITLE0=Sam and Dave - Hold on I'm Coming
TTITLE1=Percy Sledge - Sittin' on the Dock of the Bay
TTITLE2=Phil Upchurch - Tell it like it is
TTITLE3=Big Bill Bronzy and Washboard Sam - By Myself
TTITLE4=Lowel Fullson - Blue Shadows
TTITLE5=Brook Brenton - Endlessly
TTITLE6=Esther Philips - Release Me
TTITLE7=Ike and Tina Turner - I Smell Trouble
TTITLE8=Gladys Morton - Change our World
TTITLE9=Sam Cooke - The Last Mile of the Way
EXTD=YEAR: 1996
EXTT0=
EXTT1=
EXTT2=
EXTT3=
EXTT4=
EXTT5=
EXTT6=
EXTT7=
EXTT8=
EXTT9=
PLAYORDER=
